<svg height="512" viewBox="0 0 128 128" width="512" xmlns="http://www.w3.org/2000/svg"><g><circle cx="64" cy="64" fill="#c5c9f7" r="36.812"/><path d="m68.351 69.165a12.542 12.542 0 1 0 -23.241-8.682 5.7 5.7 0 0 1 -3.1 3.8 7.141 7.141 0 0 0 -3.06 2.9c-2.5 4.531.65 11.064 7.039 14.592s13.6 2.714 16.1-1.817a6.887 6.887 0 0 0 .831-2.818 5.644 5.644 0 0 1 2.108-4.1 12.419 12.419 0 0 0 3.323-3.875z" fill="#ececf1"/><path d="m56.887 70.39a3.894 3.894 0 1 1 -3.894-3.89 3.893 3.893 0 0 1 3.894 3.89z" fill="#fedb41"/><path d="m90.747 66.5-7.728-13.386a9.032 9.032 0 0 0 -.311-7.82c-2.908-5.031-10.932-5.834-17.929-1.794a18.147 18.147 0 0 0 -7.048 7.108 12.23 12.23 0 0 1 5.337 1.322 12.507 12.507 0 0 1 4.532 18.429l4.116 7.13a3.236 3.236 0 0 0 4.421 1.185l13.43-7.754a3.236 3.236 0 0 0 1.18-4.42z" fill="#bf6015"/><g fill="#1689fc"><path d="m107.937 37.355v7.438a5.156 5.156 0 0 0 5.157 5.156v45.858a4 4 0 0 0 4 4 4 4 0 0 0 4-4v-45.858a5.156 5.156 0 0 0 5.156-5.156v-7.438a9.156 9.156 0 0 0 -9.156-9.156 9.157 9.157 0 0 0 -9.157 9.156z"/><path d="m17.033 28.2a2.985 2.985 0 0 0 -2.72 3.034v8.744a3.406 3.406 0 0 1 -3.407 3.406 3.405 3.405 0 0 1 -3.406-3.403v-8.744a2.986 2.986 0 0 0 -2.72-3.037 2.876 2.876 0 0 0 -3.03 2.871v13.722a5.156 5.156 0 0 0 5.156 5.156v45.858a4 4 0 0 0 4 4 4 4 0 0 0 4-4v-45.858a5.156 5.156 0 0 0 5.157-5.156v-13.719a2.876 2.876 0 0 0 -3.03-2.874z"/></g></g></svg>