<svg width="63" height="37" viewBox="0 0 63 37" fill="none" xmlns="http://www.w3.org/2000/svg">
<path d="M31.2839 37C41.5012 37 49.7839 28.7173 49.7839 18.5C49.7839 8.28273 41.5012 0 31.2839 0C21.0667 0 12.7839 8.28273 12.7839 18.5C12.7839 28.7173 21.0667 37 31.2839 37Z" fill="#C5C9F7"/>
<path d="M33.4706 21.0957C33.9095 20.3027 34.1722 19.4245 34.2409 18.5208C34.3095 17.6171 34.1825 16.7092 33.8684 15.8591C33.5544 15.0089 33.0607 14.2365 32.421 13.5945C31.7813 12.9525 31.0107 12.456 30.1617 12.1388C29.3127 11.8216 28.4053 11.6913 27.5013 11.7567C26.5974 11.8221 25.7182 12.0816 24.9236 12.5176C24.1291 12.9536 23.438 13.5559 22.8973 14.2832C22.3566 15.0106 21.9792 15.846 21.7907 16.7325C21.6896 17.1467 21.4972 17.5331 21.2277 17.8635C20.9581 18.1939 20.6183 18.4599 20.2328 18.6422C19.5852 18.9622 19.0493 19.4701 18.695 20.0996C17.4386 22.3767 19.0217 25.6599 22.2325 27.4329C25.4433 29.2059 29.0672 28.7968 30.3236 26.5197C30.563 26.0832 30.7055 25.6002 30.7412 25.1035C30.7628 24.7049 30.8684 24.3153 31.0509 23.9602C31.2335 23.6051 31.4889 23.2926 31.8006 23.0431C32.4861 22.5166 33.0548 21.8535 33.4706 21.0957Z" fill="#ECECF1"/>
<path d="M27.7093 21.7113C27.7097 22.0984 27.5953 22.477 27.3805 22.7991C27.1657 23.1212 26.8602 23.3723 26.5026 23.5207C26.1451 23.6692 25.7515 23.7082 25.3718 23.6329C24.9921 23.5576 24.6432 23.3714 24.3693 23.0978C24.0954 22.8242 23.9088 22.4755 23.8332 22.0958C23.7575 21.7162 23.7961 21.3226 23.9442 20.9649C24.0922 20.6072 24.3431 20.3014 24.6649 20.0863C24.9868 19.8712 25.3652 19.7564 25.7524 19.7564C26.2711 19.7562 26.7686 19.9621 27.1356 20.3287C27.5025 20.6953 27.7089 21.1926 27.7093 21.7113Z" fill="#FEDB41"/>
<path d="M44.7258 19.7564L40.8421 13.0292C41.1124 12.4044 41.2387 11.7267 41.2117 11.0464C41.1846 10.3661 41.0049 9.70063 40.6858 9.09923C39.2243 6.57088 35.1918 6.16733 31.6755 8.19765C30.1833 9.03275 28.9559 10.2706 28.1335 11.7698C29.0664 11.7848 29.9836 12.012 30.8156 12.4342C31.6239 12.8431 32.3342 13.4218 32.8979 14.1308C33.4617 14.8398 33.8655 15.6622 34.0819 16.5418C34.2982 17.4214 34.3218 18.3373 34.1511 19.2269C33.9805 20.1164 33.6196 20.9586 33.0932 21.6957L35.1617 25.2789C35.2685 25.464 35.4106 25.6261 35.5801 25.7562C35.7495 25.8862 35.9429 25.9816 36.1492 26.0369C36.3555 26.0922 36.5707 26.1064 36.7825 26.0785C36.9943 26.0506 37.1985 25.9813 37.3835 25.8745L44.1328 21.9777C44.5059 21.7616 44.7779 21.4063 44.8891 20.9898C45.0003 20.5733 44.9416 20.1296 44.7258 19.7564Z" fill="#BF6015"/>
<path d="M53.3646 5.10944V8.84743C53.3646 9.18775 53.4317 9.52474 53.5619 9.83914C53.6922 10.1536 53.8831 10.4392 54.1237 10.6798C54.3644 10.9205 54.6501 11.1113 54.9645 11.2415C55.279 11.3717 55.616 11.4387 55.9563 11.4386V34.4847C55.9563 35.0178 56.1681 35.5291 56.5451 35.9061C56.9221 36.2831 57.4334 36.4949 57.9665 36.4949C58.4997 36.4949 59.011 36.2831 59.3879 35.9061C59.7649 35.5291 59.9767 35.0178 59.9767 34.4847V11.4386C60.6639 11.4386 61.323 11.1656 61.809 10.6797C62.2949 10.1937 62.5679 9.53465 62.5679 8.84743V5.10944C62.5679 3.88908 62.0831 2.7187 61.2202 1.85577C60.3572 0.992844 59.1869 0.508057 57.9665 0.508057C56.7461 0.508057 55.5757 0.992828 54.7127 1.85574C53.8497 2.71865 53.3648 3.88903 53.3646 5.10944Z" fill="#1689FC"/>
<path d="M7.68053 0.508574C7.3019 0.542242 6.95016 0.718393 6.69642 1.00143C6.44268 1.28446 6.30585 1.65327 6.31358 2.03332V6.42765C6.31358 6.65247 6.26929 6.8751 6.18324 7.0828C6.09719 7.29051 5.97106 7.47923 5.81206 7.63818C5.65306 7.79713 5.4643 7.9232 5.25657 8.00919C5.04884 8.09519 4.82621 8.13941 4.60138 8.13935C4.14763 8.13948 3.7124 7.95939 3.39141 7.63868C3.07042 7.31797 2.88995 6.88291 2.88968 6.42916V2.03483C2.89768 1.65456 2.76098 1.28544 2.50723 1.0021C2.25347 0.718773 1.90159 0.542373 1.52274 0.508574C1.32673 0.498063 1.13064 0.527586 0.946422 0.595342C0.762202 0.663099 0.593713 0.767669 0.45123 0.902675C0.308747 1.03768 0.195256 1.20029 0.117678 1.3806C0.0400995 1.5609 5.96464e-05 1.75512 0 1.9514V8.84744C0 9.53466 0.272997 10.1937 0.758935 10.6797C1.24487 11.1656 1.90395 11.4386 2.59117 11.4386V34.4847C2.59117 35.0178 2.80296 35.5292 3.17994 35.9061C3.55693 36.2831 4.06824 36.4949 4.60138 36.4949C5.13452 36.4949 5.64583 36.2831 6.02282 35.9061C6.39981 35.5292 6.6116 35.0178 6.6116 34.4847V11.4386C6.95191 11.4387 7.28891 11.3717 7.60335 11.2415C7.91778 11.1113 8.20349 10.9205 8.44415 10.6799C8.68482 10.4392 8.87572 10.1536 9.00597 9.83916C9.13622 9.52475 9.20326 9.18776 9.20326 8.84744V1.95291C9.20341 1.7565 9.16352 1.56212 9.08603 1.38164C9.00854 1.20116 8.89509 1.03836 8.75258 0.903193C8.61008 0.768026 8.44152 0.663321 8.2572 0.595473C8.07287 0.527625 7.87666 0.498057 7.68053 0.508574Z" fill="#1689FC"/>
</svg>
